<?xml version="1.0" standalone="no"?>
<!DOCTYPE svg PUBLIC "-//W3C//DTD SVG 20010904//EN"
 "http://www.w3.org/TR/2001/REC-SVG-20010904/DTD/svg10.dtd">
<svg version="1.0" xmlns="http://www.w3.org/2000/svg"
 width="764.000000pt" height="1280.000000pt" viewBox="0 0 764.000000 1280.000000"
 preserveAspectRatio="xMidYMid meet">
<metadata>
Created by potrace 1.15, written by Peter Selinger 2001-2017
</metadata>
<g transform="translate(0.000000,1280.000000) scale(0.100000,-0.100000)"
fill="#ffffff" stroke="none">
<path d="M2767 12786 c-70 -26 -97 -66 -97 -148 0 -62 37 -175 59 -183 9 -3
24 -12 34 -19 17 -13 16 -17 -22 -74 -81 -119 -92 -194 -33 -238 15 -11 16
-100 3 -646 -6 -275 -7 -287 -28 -310 -34 -37 -34 -64 2 -107 l26 -30 -21 -40
c-26 -52 -25 -71 6 -150 19 -47 26 -82 25 -128 -1 -88 -26 -421 -81 -1083 -17
-195 -30 -380 -30 -410 0 -61 29 -134 73 -186 l26 -31 -25 -24 c-60 -56 -69
-115 -25 -160 l29 -29 -21 -62 c-24 -69 -22 15 -30 -1488 l-2 -495 -50 -3
c-27 -1 -358 -43 -735 -93 -801 -105 -1387 -203 -1475 -246 l-55 -27 0 -221 0
-220 115 -34 115 -34 -5 -31 c-3 -17 -35 -274 -70 -571 -36 -297 -72 -594 -80
-660 -16 -135 -32 -267 -105 -865 -27 -228 -63 -561 -80 -740 -16 -179 -61
-669 -100 -1090 -39 -421 -79 -863 -91 -984 -11 -120 -19 -219 -17 -221 2 -1
66 -24 142 -51 l140 -50 61 33 61 32 17 143 c15 131 46 381 212 1743 70 575
61 525 94 519 14 -2 231 -29 481 -59 996 -120 1445 -175 1455 -179 15 -5 1
-278 -31 -618 -15 -159 -26 -290 -23 -292 7 -7 274 -54 279 -49 2 2 29 210 60
461 l56 457 34 -3 c19 -2 271 -32 560 -67 289 -35 696 -85 905 -110 208 -26
383 -49 387 -51 4 -3 8 -37 8 -75 0 -39 18 -224 40 -412 22 -188 67 -576 100
-862 33 -286 79 -675 101 -864 22 -190 41 -346 43 -348 2 -2 78 4 170 14 l168
17 -6 91 c-3 49 -11 250 -17 445 -12 401 -111 2380 -134 2684 -8 110 -14 201
-12 202 5 5 822 -88 828 -95 3 -3 41 -217 83 -476 71 -429 269 -1441 284
-1456 6 -6 295 -31 298 -26 5 10 -34 411 -66 687 -22 190 -67 576 -100 858
-33 282 -75 613 -94 735 -161 1030 -226 1428 -294 1784 l-78 412 188 67 188
67 1 56 c1 87 -1 156 -7 283 l-6 116 -51 21 c-27 12 -58 21 -68 21 -10 0 -20
4 -23 9 -5 7 129 640 269 1271 38 174 57 307 80 555 10 106 21 175 29 185 44
50 60 136 31 176 -13 20 -10 29 34 115 40 78 51 112 65 199 20 124 135 864
202 1310 37 239 52 318 65 328 63 53 69 62 69 99 0 22 9 56 20 78 23 44 25 77
9 104 -10 14 0 66 49 257 55 218 62 259 82 467 l21 228 35 45 c30 40 34 53 34
104 0 36 -8 82 -21 116 -25 66 -23 71 49 166 120 159 105 262 -46 308 -134 41
-251 18 -295 -58 -37 -64 -39 -115 -11 -269 5 -24 -4 -56 -36 -130 -36 -85
-41 -105 -38 -157 3 -59 3 -60 -27 -68 -16 -4 -480 -11 -1030 -14 l-1000 -6
-725 56 c-399 30 -846 65 -995 76 -148 11 -284 23 -302 26 l-32 5 25 36 c33
49 33 119 -1 191 -33 71 -32 89 11 174 59 118 57 213 -6 258 -62 44 -208 62
-283 36z m636 -1647 c199 -16 365 -33 368 -37 3 -4 -5 -189 -17 -412 -67
-1210 -74 -1453 -95 -3050 -6 -503 -13 -917 -16 -919 -5 -6 -63 -3 -348 19
-132 10 -266 15 -298 13 l-58 -6 5 59 c4 33 15 223 26 424 12 201 29 514 39
695 19 342 18 412 -13 710 -13 121 -12 131 4 150 54 61 53 121 -2 181 -19 21
-19 22 3 75 54 138 54 87 19 1417 l-11 394 31 34 c34 39 37 62 15 103 -13 26
-13 30 1 42 40 33 32 98 -15 124 -14 8 -20 14 -13 15 8 0 176 -14 375 -31z
m707 -58 c69 -6 188 -16 265 -21 77 -6 158 -13 180 -16 l41 -5 -23 -237 c-13
-130 -68 -691 -123 -1247 -55 -555 -104 -1066 -110 -1135 -14 -176 -76 -1098
-96 -1445 -9 -159 -19 -293 -23 -296 -5 -6 -372 18 -376 24 -1 1 1 106 6 232
33 955 40 1301 64 3475 3 267 8 530 11 586 l6 100 26 -2 c15 -2 83 -8 152 -13z
m988 -70 c150 -5 275 -11 278 -14 3 -3 -62 -513 -145 -1133 -83 -621 -162
-1216 -176 -1322 -13 -106 -59 -516 -100 -910 -103 -985 -105 -995 -109 -999
-4 -5 -321 15 -372 23 l-30 4 8 73 c17 168 119 1308 133 1492 29 395 85 1353
130 2210 14 270 28 514 31 544 l6 53 36 -6 c21 -4 160 -11 310 -15z m1072 -5
c0 -6 -138 -877 -241 -1521 -44 -275 -116 -720 -160 -990 -45 -269 -127 -809
-183 -1199 l-101 -709 -70 2 c-38 2 -135 8 -215 15 -136 10 -145 12 -143 31 2
11 16 135 33 275 71 608 131 1136 159 1410 17 162 58 558 91 880 59 577 180
1783 180 1794 0 3 132 7 293 9 160 1 307 3 325 5 17 1 32 0 32 -2z m736 -18
c-19 -27 -20 -45 -2 -79 11 -22 11 -28 -6 -49 -17 -21 -18 -34 -13 -124 8
-120 28 -28 -299 -1359 -91 -369 -98 -419 -72 -529 11 -50 11 -59 -1 -70 -41
-34 -55 -114 -29 -173 11 -27 10 -36 -21 -100 -35 -76 -18 20 -253 -1415 -44
-267 -82 -500 -85 -519 l-6 -34 -72 6 c-40 4 -122 9 -184 13 -61 4 -117 10
-123 14 -9 5 -3 63 24 226 79 484 130 860 251 1854 108 885 286 2317 290 2338
l5 22 306 0 305 0 -15 -22z m-5508 -5243 c355 -44 1026 -125 1420 -171 l53 -6
-6 -42 c-3 -22 -23 -261 -45 -530 -23 -270 -42 -491 -43 -492 -3 -2 -1909 194
-1911 198 -2 2 37 797 53 1086 1 6 8 12 17 12 8 0 216 -25 462 -55z m4502 10
c0 -3 23 -201 51 -441 27 -240 48 -439 45 -442 -7 -6 -734 59 -761 69 -18 6
-25 39 -68 295 -27 159 -51 296 -53 305 -4 14 11 17 95 22 108 8 219 38 511
141 149 53 180 62 180 51z m-1590 -226 c212 0 409 3 438 7 l52 7 0 -282 c0
-273 -1 -281 -20 -281 -11 0 -264 23 -562 50 -821 76 -983 91 -983 93 0 1 1
96 3 211 l4 209 341 -7 c188 -3 515 -7 727 -7z m-289 -719 c425 -38 773 -71
774 -72 1 -2 5 -102 9 -223 l7 -221 -118 13 c-65 6 -296 30 -513 52 -217 23
-527 54 -689 71 -162 16 -295 31 -297 33 -2 1 6 88 16 192 11 105 20 198 20
208 0 9 4 17 10 17 5 0 357 -31 781 -70z m1659 -151 c190 -17 346 -32 347 -33
3 -3 120 -1010 118 -1014 -2 -3 -808 87 -810 91 -1 1 -17 207 -34 457 -17 250
-34 474 -37 498 l-6 43 38 -6 c22 -3 194 -19 384 -36z m-3855 -350 c506 -50
922 -93 924 -95 3 -3 -3 -105 -12 -227 -10 -122 -24 -368 -33 -547 -8 -179
-18 -327 -20 -329 -14 -14 -1868 219 -1939 243 -7 2 8 152 41 422 29 231 55
468 59 527 l7 108 27 -5 c14 -3 440 -47 946 -97z m2195 -220 c443 -44 806 -81
806 -82 1 -1 4 -57 7 -124 5 -92 3 -123 -6 -123 -7 -1 -389 41 -850 92 l-838
93 5 45 c3 25 8 75 12 113 6 64 7 67 33 67 14 0 388 -36 831 -81z m-439 -429
c496 -57 1111 -126 1207 -136 48 -5 62 -10 62 -23 0 -9 7 -142 15 -296 8 -154
15 -296 15 -315 l0 -36 -917 105 c-505 57 -919 105 -921 106 -3 3 66 585 74
623 2 12 8 22 13 22 5 0 209 -23 452 -50z"/>
</g>
</svg>
